<svg width="58" height="47" viewBox="0 0 58 47" fill="none" xmlns="http://www.w3.org/2000/svg">
<path d="M16.3714 20.6495H26.1788C26.3425 20.6495 26.4784 20.5246 26.4869 20.3642C26.5803 18.7106 27.5175 10.433 36.8988 10.433C47.3208 10.433 47.3208 20.6495 47.3208 20.6495V40.7797C47.3208 40.9469 47.459 41.0824 47.6296 41.0824H57.4339C57.6045 41.0824 57.7427 40.9469 57.7427 40.7797V20.6495C57.7427 20.6495 57.7427 0.216553 36.8988 0.216553C17.5842 0.216553 16.1668 17.7601 16.0634 20.3354C16.0564 20.5072 16.1969 20.6495 16.3722 20.6495H16.3714Z" fill="#232930"/>
<path d="M41.7933 25.7579H31.9858C31.8222 25.7579 31.6863 25.8828 31.6778 26.0432C31.5844 27.6967 30.6472 35.9744 21.2659 35.9744C10.8439 35.9744 10.8439 25.7579 10.8439 25.7579V10.7359C10.8439 10.5687 10.7057 10.4332 10.5351 10.4332H0.730735C0.560124 10.4332 0.421936 10.5687 0.421936 10.7359V25.7579C0.421936 25.7579 0.421936 46.1908 21.2659 46.1908C40.5805 46.1908 41.9979 28.6473 42.1013 26.072C42.1083 25.9002 41.9678 25.7579 41.7925 25.7579H41.7933Z" fill="#232930"/>
</svg>
